# xmcd
#
# Track frame offsets:
#	150
#	17476
#	34913
#	51239
#	69824
#	87521
#	105300
#	123298
#	140170
#	156343
#	172148
#	187274
#	203764
#	219984
#	233193
#	247133
#	262410
#
# Disc length: 3678 seconds
#
# Revision: 2
# Processed by: cddbd v1.5.1PL0 Copyright (c) Steve Scherf et al.
# Submitted via: audiograbber 1.83.01
#
DISCID=010e5c11
DTITLE=Various Artist - RPM RC73
DYEAR=2002
DGENRE=Country
TTITLE0=Dixie Chicks - Long Time Gone
TTITLE1=Tim McGraw - Unbroken [Radio Edit]
TTITLE2=Diamond Rio - Beautiful Mess
TTITLE3=Martina McBride - Where Would You Be [Single Version]
TTITLE4=Keith Urban - Somebody Like You
TTITLE5=Sara Evans - I Keep Looking
TTITLE6=Joe Nichols - The Impossible [Single Version]
TTITLE7=Blake Shelton - Ol' Red
TTITLE8=Cyndi Thomson - I'm Gone [Single Version]
TTITLE9=Chris Cagle - Country By The Grace Of God
TTITLE10=Sixwire - Look At Me Now
TTITLE11=Brad Martin - Before I Knew Better
TTITLE12=SHeDaisy - Mine All The Time
TTITLE13=Garth Brooks - Thicker Than Blood
TTITLE14=Phil Vassar - American Child
TTITLE15=Mark Chesnutt - She Was
TTITLE16=Daryle Singletary - That's Why I Sing This Way
EXTD=
EXTT0=
EXTT1=
EXTT2=
EXTT3=
EXTT4=
EXTT5=
EXTT6=
EXTT7=
EXTT8=
EXTT9=
EXTT10=
EXTT11=
EXTT12=
EXTT13=
EXTT14=
EXTT15=
EXTT16=
PLAYORDER=
